{"title":"Azhar (2016) ~2 CD DvDRip XviD AC3 5.1 ESub -DDR-Exclusive","uid":15119867,"size":1480315424,"categoryP":"video","categoryS":"movies","magnet":"?xt=urn:btih:7538c958ea559ed19cbfc23dfca9a0b009cc7409&amp;dn=Azhar+%282016%29+%7E2+CD+DvDRip+XviD+AC3+5.1+ESub+-DDR-Exclusive&amp;tr=udp%3A%2F%2Ftracker.leechers-paradise.org%3A6969&amp;tr=udp%3A%2F%2Fzer0day.ch%3A1337&amp;tr=udp%3A%2F%2Fopen.demonii.com%3A1337&amp;tr=udp%3A%2F%2Ftracker.coppersurfer.tk%3A6969&amp;tr=udp%3A%2F%2Fexodus.desync.com%3A6969","seeders":1,"leechers":0,"uploader":"SaM","files":3,"time":1467068100,"description":"- BollywooD MoviE -\r\n**- AZHAR -**\r\n- 2016 -\r\n** 1/3 DvDrip / XviD / AAC 5.1 **\r\nEnglish subtitle(s)\r\n\r\n \nhttp://extraimago.com/image/aDQl \nhttp://extraimago.com/image/aDQi \nhttp://extraimago.com/image/aDQm \nhttp://extraimago.com/image/aDQR \nhttp://extraimago.com/image/aDQQ \nhttp://extraimago.com/image/aDQL \nhttp://extraimago.com/image/aDQy \nhttp://extraimago.com/image/aDQq \nhttp://extraimago.com/image/aDQS \nhttp://extraimago.com/image/aDQO \nhttp://extraimago.com/image/aDQE \nhttp://extraimago.com/image/aDQ1\r\n\r\n[ Specs ]\r\nGeneral\r\nSource = DVD9 @ DDR\r\nFormat : AVI\r\nFile size : 1.37 GiB\r\nDuration : 2h 11mn\r\nOverall bit rate : 1 492 Kbps\r\n\r\nVideo\r\nFormat : MPEG-4 Visual\r\nFormat profile : Advanced   \r\nFormat settings, Matrix : Custom\r\nCodec ID : XVID\r\nDuration : 2h 11mn\r\nBit rate : 1 230 Kbps\r\nWidth : 720 pixels\r\nHeight : 304 pixels\r\nDisplay aspect ratio : 2.35:1\r\nFrame rate : 23.976 (24000/1001) fps\r\nChroma subsampling : 4:2:0\r\nBit depth : 8 bits\r\nScan type : Progressive\r\nBits/(Pixel*Frame) : 0.234\r\nStream size : 1.13 GiB (82%)\r\n\r\nAudio\r\nFormat : AC-3\r\nFormat/Info : Audio Coding 3\r\nDuration : 2h 11mn\r\nBit rate mode : Constant\r\nBit rate : 256 Kbps\r\nChannel(s) : 6 channels\r\nChannel positions : Front: L C R, Side: L R, LFE\r\nSampling rate : 48.0 KHz\r\nFrame rate : 31.250 fps (1536 spf)\r\nCompression mode : Lossy\r\nStream size : 241 MiB (17%)\r\n\r\nText\r\nStream size : 147 KiB (0%)\r\nTitle : Azhar.English\r\nLanguage : English\r\n\r\nChapters: N/A\r\nSample: YES - included\r\n\r\nA DDR 8th Anniversary Exclusive Release...!","torrent":{"xt":"urn:btih:7538c958ea559ed19cbfc23dfca9a0b009cc7409","amp;dn":"Azhar+%282016%29+%7E2+CD+DvDRip+XviD+AC3+5.1+ESub+-DDR-Exclusive","amp;tr":["udp%3A%2F%2Ftracker.leechers-paradise.org%3A6969","udp%3A%2F%2Fzer0day.ch%3A1337","udp%3A%2F%2Fopen.demonii.com%3A1337","udp%3A%2F%2Ftracker.coppersurfer.tk%3A6969","udp%3A%2F%2Fexodus.desync.com%3A6969"],"infoHash":"7538c958ea559ed19cbfc23dfca9a0b009cc7409","infoHashBuffer":{"type":"Buffer","data":[117,56,201,88,234,85,158,209,156,191,194,61,252,169,160,176,9,204,116,9]},"announce":[],"urlList":[]}}